<?xml version="1.0" encoding="UTF-8"?>
<svg width="50px" height="50px" viewBox="0 0 50 50" version="1.1" xmlns="http://www.w3.org/2000/svg" xmlns:xlink="http://www.w3.org/1999/xlink">
    <title>icon/Bleach</title>
    <g id="icon/Bleach" stroke="none" stroke-width="1" fill="none" fill-rule="evenodd">
        <path d="M47.0048077,2 L47.9985057,2.99519231 L32.022,18.972 L41.9212578,36.9692048 L37.962,36.969 L47.9970114,47.0048077 L47.0048077,48 L35.974,36.969 L14.024,36.969 L2.99519231,48 L2,47.0048077 L12.035,36.969 L8.60174116,36.9692048 L18.314,19.309 L2,2.99519231 L2.99519231,2 L19.02,18.026 L25.2600052,6.68009356 L31.315,17.689 L47.0048077,2 Z M19.349,20.344 L10.9806393,35.5630847 L13.442,35.563 L24.005,25 L19.349,20.344 Z M24.999,25.994 L15.43,35.563 L34.568,35.563 L24.999,25.994 Z M30.986,20.007 L25.994,25 L36.557,35.563 L39.5423597,35.5630847 L30.986,20.007 Z M25.2600052,9.59693347 L20.055,19.061 L24.999,24.005 L30.28,18.724 L25.2600052,9.59693347 Z" id="Combined-Shape" fill="#1A1919"></path>
    </g>
</svg>