<svg xmlns="http://www.w3.org/2000/svg" xmlns:xlink="http://www.w3.org/1999/xlink" version="1.1" width="50" height="50" viewBox="0 0 50 50" xml:space="preserve">
<defs>
</defs>
<rect x="0" y="0" width="100%" height="100%" fill="transparent"/>
<g transform="matrix(1 0 0 1 25 25)" id="f1407db6-3728-4f3e-898b-eba432287250">
<rect style="stroke: none; stroke-width: 1; stroke-dasharray: none; stroke-linecap: butt; stroke-dashoffset: 0; stroke-linejoin: miter; stroke-miterlimit: 4; fill: rgb(255,255,255); fill-rule: nonzero; opacity: 1; visibility: hidden;" vector-effect="non-scaling-stroke" x="-25" y="-25" rx="0" ry="0" width="50" height="50"/>
</g>
<g transform="matrix(Infinity NaN NaN Infinity 0 0)" id="53e0e0c3-cdce-44fb-b1e3-20db099492e5">
</g>
<g transform="matrix(0.04 0 0 0.06 25 25)">
<g style="" vector-effect="non-scaling-stroke">
		<g transform="matrix(1 0 0 1 -229.7 76.45)">
<rect style="stroke: none; stroke-width: 1; stroke-dasharray: none; stroke-linecap: butt; stroke-dashoffset: 0; stroke-linejoin: miter; stroke-miterlimit: 4; fill: rgb(132,183,64); fill-rule: nonzero; opacity: 1;" vector-effect="non-scaling-stroke" x="-168.4" y="-56.1" rx="0" ry="0" width="336.8" height="112.2"/>
</g>
		<g transform="matrix(1 0 0 1 -229.7 -76.6)">
<rect style="stroke: none; stroke-width: 1; stroke-dasharray: none; stroke-linecap: butt; stroke-dashoffset: 0; stroke-linejoin: miter; stroke-miterlimit: 4; fill: rgb(37,155,214); fill-rule: nonzero; opacity: 1;" vector-effect="non-scaling-stroke" x="-168.4" y="-56.15" rx="0" ry="0" width="336.8" height="112.3"/>
</g>
		<g transform="matrix(1 0 0 1 259.9 65.35)">
<path style="stroke: none; stroke-width: 1; stroke-dasharray: none; stroke-linecap: butt; stroke-dashoffset: 0; stroke-linejoin: miter; stroke-miterlimit: 4; fill: rgb(39,41,45); fill-rule: nonzero; opacity: 1;" vector-effect="non-scaling-stroke" transform=" translate(-658, -198.1)" d="M 673.6 242.5 L 672.1 242.8 C 666.9 243.8 665 244.20000000000002 661.2 244.20000000000002 C 652.4000000000001 244.20000000000002 642 239.70000000000002 642 218.50000000000003 C 642 207.60000000000002 643.8 193.10000000000002 660.2 193.10000000000002 L 660.3000000000001 193.10000000000002 C 663.1 193.3 666.3000000000001 193.60000000000002 672.3000000000001 195.40000000000003 L 673.6 195.80000000000004 L 673.6 242.5 L 673.6 242.5 z M 676.3 136.8 L 673.5999999999999 137.3 L 673.5999999999999 176.5 L 671.1999999999999 175.8 L 670.4999999999999 175.60000000000002 C 667.7999999999998 174.8 661.5999999999999 173.00000000000003 655.5999999999999 173.00000000000003 C 622.8 173.00000000000003 615.8999999999999 197.80000000000004 615.8999999999999 218.60000000000002 C 615.8999999999999 247.10000000000002 631.8999999999999 263.5 659.7999999999998 263.5 C 671.5999999999998 263.5 680.2999999999998 262.3 689.0999999999998 259.4 C 697.1999999999998 256.79999999999995 700.0999999999998 253.09999999999997 700.0999999999998 245.2 L 700.0999999999998 132.7 C 692.3 134.1 684.2 135.5 676.3 136.8" stroke-linecap="round"/>
</g>
		<g transform="matrix(1 0 0 1 357.1 86.2)">
<path style="stroke: none; stroke-width: 1; stroke-dasharray: none; stroke-linecap: butt; stroke-dashoffset: 0; stroke-linejoin: miter; stroke-miterlimit: 4; fill: rgb(39,41,45); fill-rule: nonzero; opacity: 1;" vector-effect="non-scaling-stroke" transform=" translate(-755.2, -218.95)" d="M 771.1 243.2 L 769.7 243.6 L 764.7 244.9 C 760 246.1 755.8000000000001 246.8 752.6 246.8 C 744.9 246.8 740.3000000000001 243 740.3000000000001 236.5 C 740.3000000000001 232.3 742.2 225.2 754.8000000000001 225.2 L 771.1 225.2 L 771.1 243.2 z M 759.6 172.5 C 749.5 172.5 739.1 174.3 726.2 178.3 L 717.8000000000001 180.8 L 720.6 199.8 L 728.8000000000001 197.10000000000002 C 737.4000000000001 194.3 748.1 192.50000000000003 756.1 192.50000000000003 C 759.7 192.50000000000003 770.7 192.50000000000003 770.7 204.40000000000003 L 770.7 209.60000000000002 L 755.4000000000001 209.60000000000002 C 727.5000000000001 209.60000000000002 714.6000000000001 218.50000000000003 714.6000000000001 237.60000000000002 C 714.6000000000001 253.90000000000003 726.5000000000001 263.70000000000005 746.5000000000001 263.70000000000005 C 752.7000000000002 263.70000000000005 761.3000000000001 262.50000000000006 768.7000000000002 260.70000000000005 L 769.1000000000001 260.6 L 769.5000000000001 260.70000000000005 L 772.0000000000001 261.1 C 779.8000000000001 262.5 787.9000000000001 263.90000000000003 795.8000000000001 265.40000000000003 L 795.8000000000001 203 C 795.8 182.8 783.6 172.5 759.6 172.5" stroke-linecap="round"/>
</g>
		<g transform="matrix(1 0 0 1 162.8 86.25)">
<path style="stroke: none; stroke-width: 1; stroke-dasharray: none; stroke-linecap: butt; stroke-dashoffset: 0; stroke-linejoin: miter; stroke-miterlimit: 4; fill: rgb(39,41,45); fill-rule: nonzero; opacity: 1;" vector-effect="non-scaling-stroke" transform=" translate(-560.9, -219)" d="M 576.8 243.2 L 575.4 243.6 L 570.4 244.9 C 565.6999999999999 246.1 561.6 246.8 558.3 246.8 C 550.5999999999999 246.8 546 243 546 236.5 C 546 232.3 547.9 225.2 560.4 225.2 L 576.6999999999999 225.2 L 576.8 243.2 L 576.8 243.2 z M 565.4 172.5 C 555.1999999999999 172.5 544.9 174.3 532 178.3 L 523.6 180.8 L 526.4 199.8 L 534.6 197.10000000000002 C 543.2 194.3 553.9 192.50000000000003 561.9 192.50000000000003 C 565.5 192.50000000000003 576.5 192.50000000000003 576.5 204.40000000000003 L 576.5 209.60000000000002 L 561.2 209.60000000000002 C 533.3000000000001 209.60000000000002 520.3000000000001 218.50000000000003 520.3000000000001 237.60000000000002 C 520.3000000000001 253.90000000000003 532.2 263.70000000000005 552.3000000000001 263.70000000000005 C 558.5000000000001 263.70000000000005 567.1 262.50000000000006 574.5000000000001 260.70000000000005 L 574.9000000000001 260.6 L 575.3000000000001 260.70000000000005 L 577.7 261.1 C 585.6 262.5 593.6 263.90000000000003 601.5 265.5 L 601.5 203.1 C 601.6 182.7 589.4 172.5 565.4 172.5" stroke-linecap="round"/>
</g>
		<g transform="matrix(1 0 0 1 43.7 84.9)">
<path style="stroke: none; stroke-width: 1; stroke-dasharray: none; stroke-linecap: butt; stroke-dashoffset: 0; stroke-linejoin: miter; stroke-miterlimit: 4; fill: rgb(39,41,45); fill-rule: nonzero; opacity: 1;" vector-effect="non-scaling-stroke" transform=" translate(-441.8, -217.65)" d="M 471.5 172.7 C 458.8 172.7 448.3 176.89999999999998 444.4 178.7 L 443.4 179.2 L 442.5 178.5 C 437.1 174.6 429.2 172.6 418.2 172.6 C 408.5 172.6 399.4 174 389.5 176.9 C 381 179.5 377.7 183.6 377.7 191.3 L 377.7 262.6 L 404.3 262.6 L 404.3 196.70000000000002 L 405.6 196.3 C 411 194.5 414.20000000000005 194.20000000000002 417.3 194.20000000000002 C 425 194.20000000000002 428.90000000000003 198.3 428.90000000000003 206.3 L 428.90000000000003 262.7 L 455.1 262.7 L 455.1 205.2 C 455.1 201.79999999999998 454.40000000000003 199.79999999999998 454.3 199.39999999999998 L 453.40000000000003 197.7 L 455.20000000000005 196.89999999999998 C 459.20000000000005 195.09999999999997 463.6 194.2 468.20000000000005 194.2 C 473.50000000000006 194.2 479.80000000000007 196.29999999999998 479.80000000000007 206.29999999999998 L 479.80000000000007 262.7 L 505.9000000000001 262.7 L 505.9000000000001 203.7 C 505.9 182.8 494.7 172.7 471.5 172.7" stroke-linecap="round"/>
</g>
		<g transform="matrix(1 0 0 1 290.45 -85.1)">
<path style="stroke: none; stroke-width: 1; stroke-dasharray: none; stroke-linecap: butt; stroke-dashoffset: 0; stroke-linejoin: miter; stroke-miterlimit: 4; fill: rgb(39,41,45); fill-rule: nonzero; opacity: 1;" vector-effect="non-scaling-stroke" transform=" translate(-688.55, -47.65)" d="M 751.5 73.2 C 747.6 73.2 741.1 72.8 736 71.8 L 734.5 71.5 L 734.5 33 C 734.5 29.8 733.9 27.8 733.8 27.5 L 733 25.9 L 734.7 25.2 C 735.1 25 735.5 24.9 736 24.7 L 736.3 24.5 C 736.9 24.3 737.5 24.1 738.0999999999999 23.9 C 738.3999999999999 23.799999999999997 738.5999999999999 23.7 738.8 23.7 C 744.6999999999999 22.099999999999998 750.0999999999999 22.3 752.5 22.099999999999998 L 752.6 22.099999999999998 C 768.9 22.099999999999998 770.8000000000001 36.599999999999994 770.8000000000001 47.5 C 770.7 68.7 760.2 73.2 751.5 73.2 M 751.4 0 C 751.1999999999999 0 750.9 0 750.6999999999999 0 C 735.4 0 719.6999999999999 4.2 714.0999999999999 12.4 C 711.0999999999999 16.4 709.3999999999999 21.4 709.3 27.3 L 709.3 27.3 L 709.3 67 C 709.3 70.4 708.5999999999999 71.7 708.5 72 L 707.6 73.7 L 659.3000000000001 73.7 L 659.3000000000001 46.1 L 659.2 46.1 C 658.6 17 641.4 1 616.5 1 L 613.6 1 L 592.2 1 C 591.2 8.1 590.4000000000001 13.1 589.4000000000001 20.2 L 613.6000000000001 20.2 C 626.3000000000002 20.2 633.0000000000001 31 633.0000000000001 47.599999999999994 L 633.0000000000001 75.39999999999999 L 631.3000000000001 74.49999999999999 C 631.0000000000001 74.39999999999999 628.9000000000001 73.69999999999999 625.6 73.69999999999999 L 583.8000000000001 73.69999999999999 C 583.0000000000001 78.99999999999999 582.0000000000001 85.89999999999999 580.9000000000001 92.79999999999998 L 709.4000000000001 92.79999999999998 C 713.8000000000001 91.89999999999998 718.9000000000001 91.09999999999998 723.3000000000001 90.39999999999998 C 729.8000000000001 93.59999999999998 741.9000000000001 95.29999999999998 750.2 95.29999999999998 C 778.1 95.29999999999998 796.2 76.59999999999998 796.2 47.79999999999998 C 796.1 19.3 778.6 0.6 751.4 0" stroke-linecap="round"/>
</g>
		<g transform="matrix(1 0 0 1 76.7 -79.95)">
<path style="stroke: none; stroke-width: 1; stroke-dasharray: none; stroke-linecap: butt; stroke-dashoffset: 0; stroke-linejoin: miter; stroke-miterlimit: 4; fill: rgb(39,41,45); fill-rule: nonzero; opacity: 1;" vector-effect="non-scaling-stroke" transform=" translate(-474.8, -52.8)" d="M 526.1 104.5 L 527.3000000000001 104.5 C 555.2 104.5 568.2 95.3 568.2 72.6 C 568.2 56.3 556.3000000000001 43.3 536.3000000000001 43.3 L 510.6000000000001 43.3 C 502.9000000000001 43.3 498.30000000000007 38.9 498.30000000000007 31.499999999999996 C 498.30000000000007 26.499999999999996 500.20000000000005 20.299999999999997 512.8000000000001 20.299999999999997 L 569 20.299999999999997 C 570.2 12.999999999999996 570.8 8.399999999999997 571.9 1.0999999999999979 L 513.5 1.0999999999999979 C 486.3 1.0999999999999979 472.6 12.499999999999998 472.6 31.499999999999996 C 472.6 50.3 484.5 60.099999999999994 504.5 60.099999999999994 L 530.2 60.099999999999994 C 537.9000000000001 60.099999999999994 542.5 66.19999999999999 542.5 72.6 C 542.5 76.8 540.6 85.5 528.1 85.5 L 523.8000000000001 85.5 L 441.50000000000006 85.3 L 441.50000000000006 85.3 L 426.50000000000006 85.3 C 413.80000000000007 85.3 404.90000000000003 78.1 404.90000000000003 61.4 L 404.90000000000003 49.9 C 404.90000000000003 32.5 411.8 21.7 426.50000000000006 21.7 L 450.90000000000003 21.7 C 452.00000000000006 14.299999999999999 452.70000000000005 9.6 453.70000000000005 2.599999999999998 L 423.30000000000007 2.599999999999998 L 420.4000000000001 2.599999999999998 C 395.5000000000001 2.599999999999998 378.30000000000007 19.299999999999997 377.7000000000001 48.39999999999999 L 377.7000000000001 48.39999999999999 L 377.7000000000001 49.49999999999999 L 377.7000000000001 61.39999999999999 C 378.3000000000001 90.5 395.5000000000001 104.39999999999999 420.4000000000001 104.39999999999999 L 423.30000000000007 104.39999999999999 L 444.70000000000005 104.39999999999999 L 489.30000000000007 104.49999999999999 L 489.30000000000007 104.49999999999999 L 515.9000000000001 104.49999999999999 L 526.1 104.5 L 526.1 104.5 z" stroke-linecap="round"/>
</g>
</g>
</g>
</svg>