<?xml version="1.0" encoding="UTF-8"?>
<svg width="50px" height="50px" viewBox="0 0 50 50" version="1.1" xmlns="http://www.w3.org/2000/svg" xmlns:xlink="http://www.w3.org/1999/xlink">
    <title>icon/Search</title>
    <g id="icon/Search" stroke="none" stroke-width="1" fill="none" fill-rule="evenodd">
        <path d="M33.1865975,31.6 L46.6709214,45.0856325 C47.1096929,45.5244466 47.1096929,46.23357 46.6709214,46.6706288 C46.4611065,46.8814674 46.1759336,47 45.8785002,47 C45.5810668,47 45.2958939,46.8814674 45.086079,46.6706288 L31.6,33.1849962 L33.1865975,31.6 Z M31.1715416,7.82707492 C37.6094861,14.2650195 37.6094861,24.7372864 31.1715416,31.1715416 L31.1696969,31.1715416 C24.7372864,37.6094861 14.2631748,37.6094861 7.82707492,31.1715416 C1.39097503,24.7372864 1.39097503,14.2631748 7.82707492,7.82707492 C14.2631748,1.39097503 24.7372864,1.39097503 31.1715416,7.82707492 Z M9.38398759,9.38398759 L9.38214291,9.38214291 C3.8075101,14.9604651 3.8075101,24.0381514 9.38214291,29.6164736 C14.9604651,35.1947958 24.0381514,35.1947958 29.6164736,29.6164736 C35.1947958,24.0381514 35.1947958,14.9604651 29.6164736,9.38398759 C24.0381514,3.80566541 14.9604651,3.80566541 9.38398759,9.38398759 Z" id="Combined-Shape" fill="#ffffff" fill-rule="nonzero"></path>
    </g>
</svg>