<?xml version="1.0" encoding="UTF-8"?>
<svg width="50px" height="50px" viewBox="0 0 50 50" version="1.1" xmlns="http://www.w3.org/2000/svg" xmlns:xlink="http://www.w3.org/1999/xlink">
    <title>icon/help</title>
    <g id="icon/help" stroke="none" stroke-width="1" fill="none" fill-rule="evenodd">
        <path d="M25,3.32 C36.9735334,3.32 46.68,13.0264666 46.68,25 C46.68,36.9735334 36.9735334,46.68 25,46.68 C13.0264666,46.68 3.32,36.9735334 3.32,25 C3.32,13.0264666 13.0264666,3.32 25,3.32 Z M25,4.68 C13.7775739,4.68 4.68,13.7775739 4.68,25 C4.68,36.2224261 13.7775739,45.32 25,45.32 C36.2224261,45.32 45.32,36.2224261 45.32,25 C45.32,13.7775739 36.2224261,4.68 25,4.68 Z M26.7942273,20.5715087 C26.7942273,20.5715087 25.7330622,24.858846 25.1597313,26.9925442 C24.980715,27.659764 24.7103128,28.4972056 24.4708161,29.3392959 L24.362919,29.7276802 C23.8912648,31.4714687 23.6340819,33.1254306 24.6869847,33.2061921 C26.3097459,33.3118799 27.5569921,32.8532346 27.5569921,32.8532346 L27.2652974,34.6579045 C27.2652974,34.6579045 25.3458123,35.5692129 23.6224668,35.3418844 C21.8991212,35.1105676 20.1774521,33.7665372 21.0458305,30.494202 C21.7827634,27.6698166 23.0285999,23.5752405 23.3546702,22.5110575 L23.3983032,22.3688389 C23.4220185,22.2916514 23.4347093,22.2505496 23.4347093,22.2505496 L21.1330036,21.4608819 L21.3224375,20.5715087 L26.7942273,20.5715087 Z M25.7277598,13.8853739 C26.8777744,13.8853739 27.8350023,15.0060639 27.8350023,16.3720295 C27.8350023,17.7399892 26.8777744,18.8566911 25.7277598,18.8566911 C24.5609811,18.8566911 23.62387,17.7399892 23.62387,16.3720295 C23.62387,15.0060639 24.5609811,13.8853739 25.7277598,13.8853739 Z" id="Combined-Shape" fill="#000000" fill-rule="nonzero"></path>
    </g>
</svg>